<?xml version="1.0" encoding="utf-8"?>
<!-- Generator: Adobe Illustrator 27.2.0, SVG Export Plug-In . SVG Version: 6.00 Build 0)  -->
<svg version="1.1" id="Layer_1" xmlns="http://www.w3.org/2000/svg" xmlns:xlink="http://www.w3.org/1999/xlink" x="0px" y="0px"
	 viewBox="0 0 512 512" style="enable-background:new 0 0 512 512;" xml:space="preserve">
<style type="text/css">
	.st0{fill:#0085a3;}
</style>
<g>
	<path class="st0" d="M71.67,70.67v-0.04l-0.5,0.54l-0.54,0.47l0.04,0.04c-94.54,95.65-94.22,249.84,1,345.06
		c72.85,72.85,180.17,90.14,269.42,51.91c5.55-2.36,10.31-5.69,14.28-9.63c17-17,18.36-45.93-0.11-64.4
		c-13.25-13.25-33.26-17.58-50.48-10.24c-55.74,23.77-122.75,12.96-168.25-32.54c-59.57-59.57-59.68-156.01-0.5-215.79
		c59.78-59.17,156.22-59.07,215.79,0.5c45.5,45.5,56.31,112.51,32.54,168.25c-7.34,17.22-3.01,37.23,10.24,50.48
		c18.47,18.47,47.4,17.11,64.4,0.11c3.94-3.97,7.27-8.73,9.63-14.28c38.23-89.25,20.94-196.57-51.91-269.46
		C321.51-23.55,167.32-23.88,71.67,70.67"/>
	<path class="st0" d="M495.7,495.7c-21.77,21.73-57.06,21.73-78.83,0c-21.77-21.77-21.77-57.06,0-78.83s57.06-21.77,78.83,0
		C517.43,438.64,517.43,473.94,495.7,495.7"/>
</g>
</svg>
